Coordinates
version=1
nRows=11
nColumns=33
inDegrees=yes

Units are S.I. units (second, meters, Newtons, ...)
Angles are in degrees.

endheader
time	ground_thorax_rot_x	ground_thorax_rot_y	ground_thorax_rot_z	ground_thorax_tx	ground_thorax_ty	ground_thorax_tz	clav_prot_r	clav_elev_r	scapula_abduction_r	scapula_elevation_r	scapula_upward_rot_r	scapula_winging_r	shoulder_elv_r	plane_of_elev_r	axial_rot_r	elbow_flexion_r	pro_sup_r	wrist_flex_r	wrist_dev_r	clav_prot_l	clav_elev_l	scapula_abduction_l	scapula_elevation_l	scapula_upward_rot_l	scapula_winging_l	shoulder_elv_l	plane_of_elev_l	axial_rot_l	elbow_flexion_l	pro_sup_l	wrist_flex_l	wrist_dev_l	
8.5300	-34.018118	-24.346932	35.374287	-153.227819	809.295965	-7.318975	6.053512	-45.000000	38.576766	-45.000000	-34.893207	-2259.021130	-2631.158973	147.424676	-117.903377	1098.382011	-297.704020	18.264475	5.817677	15.923775	38.188645	-36.459354	-45.000000	-45.000000	2241.169853	-2614.424051	134.034582	-180.000000	-348.801346	392.236626	7.668592	-21.487361	
8.5400	-34.207683	-24.040622	34.932262	-155.811813	810.242067	-7.295597	6.051070	-45.000000	38.612560	-45.000000	-34.739701	-2259.151868	-2630.948822	147.337257	-118.117016	1098.644961	-296.201089	18.203173	5.672019	15.908303	38.185147	-36.593791	-45.000000	-45.000000	2241.363409	-2614.296929	133.989501	-180.000000	-348.746406	391.825196	7.577486	-21.480707	
8.5500	-34.415444	-23.710070	34.461261	-158.386425	811.193294	-7.275874	6.035691	-45.000000	38.642889	-45.000000	-34.556798	-2259.282343	-2630.751058	147.257171	-118.324562	1098.909129	-294.602798	18.130095	5.526386	15.880029	38.196079	-36.747152	-45.000000	-45.000000	2241.557913	-2614.171173	133.945418	-180.000000	-348.684195	391.410729	7.492821	-21.481745	
8.5600	-34.633184	-23.366368	33.974540	-160.951641	812.150005	-7.259781	6.014034	-45.000000	38.667527	-45.000000	-34.362094	-2259.412045	-2630.563878	147.182857	-118.513181	1099.183350	-292.877430	18.044169	5.379556	15.842884	38.216141	-36.908555	-45.000000	-45.000000	2241.751595	-2614.047702	133.903848	-180.000000	-348.619265	390.996164	7.413701	-21.488713	
8.5700	-34.847334	-23.028037	33.497578	-163.507997	813.112498	-7.247042	5.992498	-45.000000	38.689378	-45.000000	-34.182679	-2259.537449	-2630.380761	147.119494	-118.659786	1099.484202	-290.927372	17.947275	5.232596	15.812901	38.233437	-37.060880	-45.000000	-45.000000	2241.938462	-2613.927230	133.870112	-180.000000	-348.559734	390.574831	7.333418	-21.493514	
8.5800	-35.041419	-22.719828	33.059378	-166.056414	814.080884	-7.237236	5.987841	-45.000000	38.710633	-45.000000	-34.063410	-2259.657502	-2630.198883	147.061401	-118.736571	1099.834597	-288.593268	17.835003	5.082651	15.798844	38.227075	-37.181721	-45.000000	-45.000000	2242.118504	-2613.811414	133.842735	-180.000000	-348.523429	390.130863	7.250796	-21.487553	
8.5900	-35.213885	-22.442224	32.660226	-168.597423	815.054692	-7.229862	5.995777	-45.000000	38.732231	-45.000000	-34.007735	-2259.766183	-2630.015304	147.018987	-118.711411	1100.280956	-285.522451	17.700330	4.924468	15.808452	38.199085	-37.268796	-45.000000	-45.000000	2242.285713	-2613.700610	133.826662	-180.000000	-348.514501	389.633740	7.165962	-21.465254	
8.6000	-35.368446	-22.191419	32.295643	-171.131042	816.032731	-7.224443	6.016818	-45.000000	38.752284	-45.000000	-34.007134	-2259.867457	-2629.840488	146.993833	-118.554958	1100.840965	-281.507995	17.526978	4.753802	15.833064	38.148133	-37.326171	-45.000000	-45.000000	2242.447312	-2613.596569	133.815085	-180.000000	-348.532598	389.073901	7.085295	-21.429417	
8.6100	-35.525113	-21.936255	31.931182	-173.656471	817.012932	-7.220572	6.043881	-45.000000	38.751762	-45.000000	-34.062934	-2259.953197	-2629.694973	147.005338	-118.167212	1101.660403	-275.205353	17.266521	4.545609	15.860338	38.093425	-37.379352	-45.000000	-45.000000	2242.589999	-2613.497682	133.824037	-180.000000	-348.566439	388.323821	7.029048	-21.380290	
8.6200	-35.689771	-21.667268	31.555230	-176.172453	817.992528	-7.217951	6.061967	-45.000000	38.748356	-45.000000	-34.096032	-2260.040077	-2629.587849	147.061064	-117.526564	1102.659262	-267.217486	16.908878	4.313126	15.872666	38.052122	-37.435125	-45.000000	-45.000000	2242.733192	-2613.403081	133.829224	-180.000000	-348.607266	387.483612	7.004887	-21.335797	
8.6300	-35.872312	-21.366262	31.143758	-178.677063	818.968131	-7.216397	6.057800	-45.000000	38.744099	-45.000000	-34.067320	-2260.128427	-2629.513384	147.158377	-116.688832	1103.770332	-258.124033	16.476899	4.073259	15.864464	38.045808	-37.506373	-45.000000	-45.000000	2242.871823	-2613.309225	133.835529	-180.000000	-348.634165	386.633093	7.003053	-21.305657	
